<?xml version="1.0" encoding="UTF-8"?>
<svg version="1.1" xmlns="http://www.w3.org/2000/svg" width="366" height="343">
<path d="M0 0 C120.78 0 241.56 0 366 0 C366 113.19 366 226.38 366 343 C245.22 343 124.44 343 0 343 C0 229.81 0 116.62 0 0 Z " fill="#FDFDFE" transform="translate(0,0)"/>
<path d="M0 0 C0.6568277 -0.00095673 1.3136554 -0.00191345 1.99038696 -0.00289917 C3.3702199 -0.00357489 4.75005612 -0.00176341 6.12988281 0.00244141 C8.21426733 0.007781 10.29843471 0.00248453 12.3828125 -0.00390625 C19.27741282 -0.00699329 26.01717565 0.17811988 32.8515625 1.1328125 C32.8515625 1.7928125 32.8515625 2.4528125 32.8515625 3.1328125 C34.09873047 3.22369141 34.09873047 3.22369141 35.37109375 3.31640625 C37.00111328 3.44208984 37.00111328 3.44208984 38.6640625 3.5703125 C39.74300781 3.65152344 40.82195312 3.73273437 41.93359375 3.81640625 C44.8515625 4.1328125 44.8515625 4.1328125 47.8515625 5.1328125 C47.8515625 5.7928125 47.8515625 6.4528125 47.8515625 7.1328125 C49.2128125 7.225625 49.2128125 7.225625 50.6015625 7.3203125 C65.7687323 9.52199844 79.96957863 20.08090115 91.8515625 29.1328125 C92.62242187 29.70386719 93.39328125 30.27492188 94.1875 30.86328125 C98.75397803 34.29951804 102.33537057 37.63990059 105.8515625 42.1328125 C106.6971875 42.9784375 107.5428125 43.8240625 108.4140625 44.6953125 C110.77173367 47.05298367 112.77922272 49.52567536 114.8515625 52.1328125 C115.80095703 53.05900391 115.80095703 53.05900391 116.76953125 54.00390625 C118.8243611 56.10499868 120.43987882 58.2128848 122.1015625 60.6328125 C122.70613281 61.51066406 123.31070313 62.38851562 123.93359375 63.29296875 C125.90224747 66.2078593 127.84765132 69.13721781 129.7890625 72.0703125 C132.40572742 76.02056726 135.10079759 79.88274114 137.9140625 83.6953125 C141.23978658 88.21019529 144.27416218 92.84917606 147.2109375 97.625 C148.94200829 100.27106536 150.87666266 102.66515012 152.8515625 105.1328125 C153.98047893 106.84592344 155.08435299 108.57576993 156.1640625 110.3203125 C160.35968394 116.98708385 164.81630012 123.43487952 169.55078125 129.73046875 C170.24530396 130.66765747 170.24530396 130.66765747 170.95385742 131.6237793 C171.87176663 132.86107281 172.80006094 134.09074213 173.73950195 135.31176758 C176.81982408 139.4878424 176.81982408 139.4878424 176.9609375 142.35546875 C175.32746833 144.97247041 173.33993832 145.82246366 170.6015625 147.1953125 C166.33706825 149.36732915 166.33706825 149.36732915 162.203125 151.7734375 C155.10529874 155.87649986 144.84476728 154.22648287 136.8515625 154.1328125 C136.81417969 154.761875 136.77679688 155.3909375 136.73828125 156.0390625 C136.28342552 161.9611057 135.14035117 166.69224927 132.8515625 172.1328125 C132.01416043 174.31875817 131.18115388 176.50639066 130.3515625 178.6953125 C125.55102303 191.11099344 120.38028791 202.60408709 110.8515625 212.1328125 C109.73443672 213.58124273 108.63140326 215.04060025 107.5390625 216.5078125 C104.06626264 221.03139514 100.23937683 224.52153576 95.8515625 228.1328125 C94.97757813 228.90496094 94.10359375 229.67710937 93.203125 230.47265625 C80.03186804 241.93129669 58.99095201 257.02329162 40.8515625 256.1328125 C40.8515625 256.7928125 40.8515625 257.4528125 40.8515625 258.1328125 C23.77971615 261.53397338 6.15000844 262.43927196 -11.1484375 260.1328125 C-11.1484375 259.4728125 -11.1484375 258.8128125 -11.1484375 258.1328125 C-11.82648438 258.08382813 -12.50453125 258.03484375 -13.203125 257.984375 C-19.64143091 257.46717037 -25.84576727 256.54100129 -32.1484375 255.1328125 C-32.1484375 254.4728125 -32.1484375 253.8128125 -32.1484375 253.1328125 C-32.83550781 253.00003906 -33.52257812 252.86726562 -34.23046875 252.73046875 C-35.58205078 252.46556641 -35.58205078 252.46556641 -36.9609375 252.1953125 C-37.85425781 252.02128906 -38.74757813 251.84726562 -39.66796875 251.66796875 C-42.1484375 251.1328125 -42.1484375 251.1328125 -45.1484375 250.1328125 C-45.1484375 249.4728125 -45.1484375 248.8128125 -45.1484375 248.1328125 C-47.7884375 247.4728125 -50.4284375 246.8128125 -53.1484375 246.1328125 C-53.1484375 245.4728125 -53.1484375 244.8128125 -53.1484375 244.1328125 C-54.3859375 243.7925 -54.3859375 243.7925 -55.6484375 243.4453125 C-59.81353236 241.88340193 -63.6485318 239.90431143 -67.1484375 237.1328125 C-67.1484375 236.4728125 -67.1484375 235.8128125 -67.1484375 235.1328125 C-67.86128906 234.88789063 -68.57414062 234.64296875 -69.30859375 234.390625 C-76.66189183 231.13373094 -83.01389888 225.04162394 -87.53515625 218.453125 C-88.88197081 216.51605999 -90.27406257 214.66648683 -91.73046875 212.8125 C-92.18993896 212.22694336 -92.64940918 211.64138672 -93.12280273 211.03808594 C-94.04573222 209.86499864 -94.97097299 208.69372552 -95.89868164 207.52441406 C-99.1484375 203.35425755 -99.1484375 203.35425755 -99.1484375 201.1328125 C-99.8084375 201.1328125 -100.4684375 201.1328125 -101.1484375 201.1328125 C-102.11953391 199.19061968 -103.09025482 197.24825745 -104.05859375 195.3046875 C-104.99021255 193.44812818 -105.94227043 191.601849 -106.8984375 189.7578125 C-108.1484375 187.1328125 -108.1484375 187.1328125 -108.1484375 185.1328125 C-108.8084375 185.1328125 -109.4684375 185.1328125 -110.1484375 185.1328125 C-110.48617187 183.87984375 -110.82390625 182.626875 -111.171875 181.3359375 C-111.62217548 179.68483572 -112.07270851 178.03379735 -112.5234375 176.3828125 C-112.74515625 175.5578125 -112.966875 174.7328125 -113.1953125 173.8828125 C-113.52402344 172.68398438 -113.52402344 172.68398438 -113.859375 171.4609375 C-114.05837402 170.7277832 -114.25737305 169.99462891 -114.46240234 169.23925781 C-115.07749757 167.1323811 -115.07749757 167.1323811 -116.12866211 165.33398438 C-121.09176889 154.62118315 -120.60493291 140.86468045 -120.48461914 129.31689453 C-120.46054484 126.84245348 -120.46415161 124.36906348 -120.47070312 121.89453125 C-120.46513867 120.30207695 -120.45803662 118.70962711 -120.44921875 117.1171875 C-120.45013016 116.38699402 -120.45104156 115.65680054 -120.45198059 114.90447998 C-120.39550577 110.84294714 -119.83972926 107.81198082 -118.1484375 104.1328125 C-117.822796 102.81299919 -117.53622011 101.482688 -117.296875 100.14453125 C-117.10351562 99.08588867 -117.10351562 99.08588867 -116.90625 98.00585938 C-116.77992187 97.28462891 -116.65359375 96.56339844 -116.5234375 95.8203125 C-116.32234375 94.70946289 -116.32234375 94.70946289 -116.1171875 93.57617188 C-115.78956766 91.76256206 -115.46835256 89.94779726 -115.1484375 88.1328125 C-114.4884375 88.1328125 -113.8284375 88.1328125 -113.1484375 88.1328125 C-112.4884375 84.8328125 -111.8284375 81.5328125 -111.1484375 78.1328125 C-110.4884375 78.1328125 -109.8284375 78.1328125 -109.1484375 78.1328125 C-108.97828125 77.49214844 -108.808125 76.85148437 -108.6328125 76.19140625 C-107.07438862 70.62915933 -105.22922278 66.01957536 -102.1484375 61.1328125 C-101.4884375 61.1328125 -100.8284375 61.1328125 -100.1484375 61.1328125 C-99.9215625 60.2871875 -99.6946875 59.4415625 -99.4609375 58.5703125 C-97.05397915 52.26637398 -93.01092886 47.75217929 -88.1484375 43.1328125 C-87.3234375 42.3078125 -86.4984375 41.4828125 -85.6484375 40.6328125 C-84.8234375 39.8078125 -83.9984375 38.9828125 -83.1484375 38.1328125 C-82.38789062 37.35679688 -81.62734375 36.58078125 -80.84375 35.78125 C-66.38861665 21.57751028 -49.24396026 10.63132961 -29.42578125 5.95703125 C-26.19967807 5.22694701 -26.19967807 5.22694701 -23.453125 4.03515625 C-20.31000797 2.80454602 -17.48796505 3.00185064 -14.1484375 3.1328125 C-14.1484375 2.4728125 -14.1484375 1.8128125 -14.1484375 1.1328125 C-9.38683673 0.36599146 -4.82112411 0.00451356 0 0 Z " fill="#315FEB" transform="translate(163.1484375,51.8671875)"/>
<path d="M0 0 C0.6568277 -0.00095673 1.3136554 -0.00191345 1.99038696 -0.00289917 C3.3702199 -0.00357489 4.75005612 -0.00176341 6.12988281 0.00244141 C8.21426733 0.007781 10.29843471 0.00248453 12.3828125 -0.00390625 C19.27741282 -0.00699329 26.01717565 0.17811988 32.8515625 1.1328125 C32.8515625 1.7928125 32.8515625 2.4528125 32.8515625 3.1328125 C34.09873047 3.22369141 34.09873047 3.22369141 35.37109375 3.31640625 C37.00111328 3.44208984 37.00111328 3.44208984 38.6640625 3.5703125 C39.74300781 3.65152344 40.82195312 3.73273437 41.93359375 3.81640625 C44.8515625 4.1328125 44.8515625 4.1328125 47.8515625 5.1328125 C47.8515625 5.7928125 47.8515625 6.4528125 47.8515625 7.1328125 C49.2128125 7.225625 49.2128125 7.225625 50.6015625 7.3203125 C65.7687323 9.52199844 79.96957863 20.08090115 91.8515625 29.1328125 C92.62242187 29.70386719 93.39328125 30.27492188 94.1875 30.86328125 C98.75397803 34.29951804 102.33537057 37.63990059 105.8515625 42.1328125 C106.6971875 42.9784375 107.5428125 43.8240625 108.4140625 44.6953125 C110.77173367 47.05298367 112.77922272 49.52567536 114.8515625 52.1328125 C115.80095703 53.05900391 115.80095703 53.05900391 116.76953125 54.00390625 C118.8243611 56.10499868 120.43987882 58.2128848 122.1015625 60.6328125 C122.70613281 61.51066406 123.31070313 62.38851562 123.93359375 63.29296875 C125.90224747 66.2078593 127.84765132 69.13721781 129.7890625 72.0703125 C132.40572742 76.02056726 135.10079759 79.88274114 137.9140625 83.6953125 C141.23978658 88.21019529 144.27416218 92.84917606 147.2109375 97.625 C148.94200829 100.27106536 150.87666266 102.66515012 152.8515625 105.1328125 C153.98047893 106.84592344 155.08435299 108.57576993 156.1640625 110.3203125 C160.35968394 116.98708385 164.81630012 123.43487952 169.55078125 129.73046875 C170.24530396 130.66765747 170.24530396 130.66765747 170.95385742 131.6237793 C171.87176663 132.86107281 172.80006094 134.09074213 173.73950195 135.31176758 C176.81982408 139.4878424 176.81982408 139.4878424 176.9609375 142.35546875 C175.32746833 144.97247041 173.33993832 145.82246366 170.6015625 147.1953125 C166.33706825 149.36732915 166.33706825 149.36732915 162.203125 151.7734375 C155.10529874 155.87649986 144.84476728 154.22648287 136.8515625 154.1328125 C136.81417969 154.761875 136.77679688 155.3909375 136.73828125 156.0390625 C136.28486263 161.94239515 135.1610159 166.71370035 132.8515625 172.1328125 C132.51640625 173.01839844 132.18125 173.90398437 131.8359375 174.81640625 C129.1023287 182.0074294 129.1023287 182.0074294 126.8515625 183.1328125 C127.44776205 178.26384947 128.42133072 173.80490299 129.8515625 169.1328125 C130.5115625 169.1328125 131.1715625 169.1328125 131.8515625 169.1328125 C132.1815625 164.5128125 132.5115625 159.8928125 132.8515625 155.1328125 C130.8715625 154.8028125 128.8915625 154.4728125 126.8515625 154.1328125 C115.77198195 149.89569568 107.43674112 143.14408423 98.8515625 135.1328125 C98.29750732 134.62395508 97.74345215 134.11509766 97.17260742 133.59082031 C95.8515625 132.1328125 95.8515625 132.1328125 95.8515625 130.1328125 C94.8615625 129.8028125 93.8715625 129.4728125 92.8515625 129.1328125 C92.8515625 128.4728125 92.8515625 127.8128125 92.8515625 127.1328125 C92.28953125 126.90851563 91.7275 126.68421875 91.1484375 126.453125 C88.17880833 124.74609327 86.34812083 122.58474706 84.1015625 120.0078125 C82.90273438 118.64269531 82.90273438 118.64269531 81.6796875 117.25 C81.07640625 116.55132812 80.473125 115.85265625 79.8515625 115.1328125 C79.5215625 116.4528125 79.1915625 117.7728125 78.8515625 119.1328125 C79.5115625 119.4628125 80.1715625 119.7928125 80.8515625 120.1328125 C81.25958609 131.44413305 79.45589678 142.15740375 76.8515625 153.1328125 C76.5215625 153.1328125 76.1915625 153.1328125 75.8515625 153.1328125 C75.72570213 145.83291083 75.72570213 145.83291083 76.3515625 142.3515625 C76.8308183 139.2663533 76.96598147 136.41474092 76.94921875 133.296875 C76.94599609 132.23339844 76.94277344 131.16992188 76.93945312 130.07421875 C76.93107422 128.97980469 76.92269531 127.88539063 76.9140625 126.7578125 C76.90729492 125.08138672 76.90729492 125.08138672 76.90039062 123.37109375 C76.88865494 120.62494446 76.87223613 117.87890664 76.8515625 115.1328125 C76.1915625 115.1328125 75.5315625 115.1328125 74.8515625 115.1328125 C72.8515625 109.1328125 70.8515625 103.1328125 68.8515625 97.1328125 C68.1915625 97.1328125 67.5315625 97.1328125 66.8515625 97.1328125 C65.87890625 95.69921875 65.87890625 95.69921875 64.7890625 93.6953125 C60.17844386 86.03814939 53.86928139 80.05637707 45.8515625 76.1328125 C45.8515625 75.4728125 45.8515625 74.8128125 45.8515625 74.1328125 C44.56958984 73.71708984 44.56958984 73.71708984 43.26171875 73.29296875 C38.77004795 71.76487456 34.38164826 70.00400084 29.97265625 68.25390625 C23.67721841 65.99259128 17.78228623 65.94974534 11.1640625 65.9453125 C10.22111328 65.93306641 9.27816406 65.92082031 8.30664062 65.90820312 C0.12978293 65.89134362 -7.5458247 67.01575635 -15.2734375 69.7578125 C-16.01851563 70.01820312 -16.76359375 70.27859375 -17.53125 70.546875 C-18.06492187 70.74023438 -18.59859375 70.93359375 -19.1484375 71.1328125 C-19.1484375 71.7928125 -19.1484375 72.4528125 -19.1484375 73.1328125 C-19.67953125 73.38675781 -20.210625 73.64070313 -20.7578125 73.90234375 C-24.50961385 75.73031996 -27.83167355 77.58145561 -31.1484375 80.1328125 C-31.8084375 80.1328125 -32.4684375 80.1328125 -33.1484375 80.1328125 C-33.6434375 81.6178125 -33.6434375 81.6178125 -34.1484375 83.1328125 C-35.0146875 83.7928125 -35.8809375 84.4528125 -36.7734375 85.1328125 C-45.01502227 91.73004262 -49.80568567 103.04979239 -52.1484375 113.1328125 C-52.8084375 113.1328125 -53.4684375 113.1328125 -54.1484375 113.1328125 C-55.48717234 126.40063097 -55.76520347 138.20446045 -52.1484375 151.1328125 C-51.91640625 152.13183594 -51.684375 153.13085938 -51.4453125 154.16015625 C-48.10500002 166.62083174 -38.21875718 175.44755357 -29.1484375 184.1328125 C-28.1461622 185.13053201 -27.14539338 186.12977762 -26.1484375 187.1328125 C-27.4684375 187.1328125 -28.7884375 187.1328125 -30.1484375 187.1328125 C-30.1484375 186.4728125 -30.1484375 185.8128125 -30.1484375 185.1328125 C-30.6846875 184.9265625 -31.2209375 184.7203125 -31.7734375 184.5078125 C-34.59529237 182.87410705 -36.48584481 180.85695152 -38.68359375 178.47265625 C-40.22345418 176.88172551 -40.22345418 176.88172551 -43.1484375 176.1328125 C-44.515625 174.77734375 -44.515625 174.77734375 -46.0234375 172.9453125 C-49.45910426 168.90420978 -52.99160974 164.96995596 -56.5859375 161.0703125 C-57.11106934 160.49321533 -57.63620117 159.91611816 -58.17724609 159.3215332 C-61.58586761 155.63121175 -65.18248034 152.32196166 -68.9909668 149.05004883 C-73.11534872 145.38491686 -76.95577849 141.42778372 -80.8359375 137.5078125 C-82.07827148 136.25871094 -82.07827148 136.25871094 -83.34570312 134.984375 C-84.88618985 133.43525464 -86.42563678 131.88509896 -87.96362305 130.33349609 C-88.68461182 129.60727051 -89.40560059 128.88104492 -90.1484375 128.1328125 C-91.36370117 126.90667236 -91.36370117 126.90667236 -92.60351562 125.65576172 C-95.10370362 123.17716015 -97.6562788 120.76863096 -100.23046875 118.3671875 C-101.65425799 117.0054735 -103.07798074 115.64368208 -104.49780273 114.27783203 C-105.47437299 113.34672533 -106.45883638 112.42382854 -107.45092773 111.50927734 C-115.7048759 103.88164133 -115.7048759 103.88164133 -116.80029297 99.56274414 C-116.81542523 97.29909555 -116.62391243 95.34076176 -116.1484375 93.1328125 C-115.9834375 92.1221875 -115.8184375 91.1115625 -115.6484375 90.0703125 C-115.4834375 89.4309375 -115.3184375 88.7915625 -115.1484375 88.1328125 C-114.4884375 88.1328125 -113.8284375 88.1328125 -113.1484375 88.1328125 C-112.4884375 84.8328125 -111.8284375 81.5328125 -111.1484375 78.1328125 C-110.4884375 78.1328125 -109.8284375 78.1328125 -109.1484375 78.1328125 C-108.97828125 77.49214844 -108.808125 76.85148437 -108.6328125 76.19140625 C-107.07438862 70.62915933 -105.22922278 66.01957536 -102.1484375 61.1328125 C-101.4884375 61.1328125 -100.8284375 61.1328125 -100.1484375 61.1328125 C-99.9215625 60.2871875 -99.6946875 59.4415625 -99.4609375 58.5703125 C-97.05397915 52.26637398 -93.01092886 47.75217929 -88.1484375 43.1328125 C-87.3234375 42.3078125 -86.4984375 41.4828125 -85.6484375 40.6328125 C-84.8234375 39.8078125 -83.9984375 38.9828125 -83.1484375 38.1328125 C-82.38789062 37.35679688 -81.62734375 36.58078125 -80.84375 35.78125 C-66.38861665 21.57751028 -49.24396026 10.63132961 -29.42578125 5.95703125 C-26.19967807 5.22694701 -26.19967807 5.22694701 -23.453125 4.03515625 C-20.31000797 2.80454602 -17.48796505 3.00185064 -14.1484375 3.1328125 C-14.1484375 2.4728125 -14.1484375 1.8128125 -14.1484375 1.1328125 C-9.38683673 0.36599146 -4.82112411 0.00451356 0 0 Z " fill="#2452E6" transform="translate(163.1484375,51.8671875)"/>
<path d="M0 0 C1.06476563 0.45503906 2.12953125 0.91007812 3.2265625 1.37890625 C5.84262026 2.54123065 8.42859284 3.74263858 11 5 C11 5.66 11 6.32 11 7 C11.99 7.2784375 11.99 7.2784375 13 7.5625 C20.11801815 10.97321703 26.45174674 17.60607875 31 24 C31.69140625 26.23828125 31.69140625 26.23828125 32 28 C32.66 28 33.32 28 34 28 C37.36561591 34.0605925 39.61330541 39.03949747 40 46 C40.66 46 41.32 46 42 46 C43.23797861 50.80453605 43.14774283 55.51367674 43.125 60.4375 C43.12886719 61.27087891 43.13273438 62.10425781 43.13671875 62.96289062 C43.12966873 67.42202587 42.89916791 71.61120425 42 76 C41.34 76 40.68 76 40 76 C39.93941406 76.61488281 39.87882813 77.22976562 39.81640625 77.86328125 C39.73261719 78.67152344 39.64882812 79.47976562 39.5625 80.3125 C39.44068359 81.51326172 39.44068359 81.51326172 39.31640625 82.73828125 C39 85 39 85 38 88 C37.34 88 36.68 88 36 88 C35.979375 88.804375 35.95875 89.60875 35.9375 90.4375 C34.56362383 95.65822943 31.45437799 98.93959078 28 103 C27.41089844 103.74636719 26.82179688 104.49273437 26.21484375 105.26171875 C20.01406724 112.80533858 11.39183758 119.94405285 2 123 C1.01 123 0.02 123 -1 123 C-1 123.66 -1 124.32 -1 125 C-10.09593581 126.95661615 -18.92567705 128.29794922 -28.25 128.3125 C-29.04704346 128.31765625 -29.84408691 128.3228125 -30.6652832 128.328125 C-34.91769497 128.27730117 -38.10779946 127.87098763 -42 126 C-43.45445462 125.50918581 -44.91277988 125.02967141 -46.375 124.5625 C-50.36896372 123.24008392 -54.20340293 121.81920276 -58 120 C-58.33 119.34 -58.66 118.68 -59 118 C-59.88816406 117.57976562 -60.77632812 117.15953125 -61.69140625 116.7265625 C-65.40643432 114.78790558 -68.06240903 112.35550004 -70.9375 109.375 C-71.45965088 108.83794434 -71.98180176 108.30088867 -72.51977539 107.74755859 C-74.02775686 106.17806028 -75.51715346 104.59322697 -77 103 C-77.7115625 102.24203125 -78.423125 101.4840625 -79.15625 100.703125 C-89.45308884 88.69014636 -91.94179498 71.32227992 -91 56 C-90.47675314 51.96739059 -89.80430507 47.98561886 -89 44 C-88.34 44 -87.68 44 -87 44 C-86.9175 42.845 -86.835 41.69 -86.75 40.5 C-85.64841003 32.01477994 -80.380202 24.46684379 -75 18 C-74.34 18 -73.68 18 -73 18 C-72.77054688 17.42507812 -72.54109375 16.85015625 -72.3046875 16.2578125 C-70.66107128 13.41347065 -68.70976048 11.89218697 -66.125 9.875 C-64.82949219 8.85019531 -64.82949219 8.85019531 -63.5078125 7.8046875 C-60.17060849 5.40314816 -58.15032348 4 -54 4 C-54 3.34 -54 2.68 -54 2 C-52.15047952 1.17697857 -50.29511436 0.36708634 -48.4375 -0.4375 C-47.40496094 -0.88996094 -46.37242187 -1.34242187 -45.30859375 -1.80859375 C-31.67105016 -6.71939752 -13.21585507 -5.66652416 0 0 Z " fill="#FCFCFE" transform="translate(198,121)"/>
<path d="M0 0 C1.2380014 3.57644848 0.74926071 6.33694766 0 10 C0.66 10.33 1.32 10.66 2 11 C2 11.66 2 12.32 2 13 C2.66 13 3.32 13 4 13 C4 14.32 4 15.64 4 17 C4.8353125 17.309375 4.8353125 17.309375 5.6875 17.625 C8.2852528 19.16960977 9.84350571 21.06545197 11.7109375 23.4140625 C14.26050401 26.55080191 17.0497042 29.3065409 20.3125 31.6875 C20.869375 32.120625 21.42625 32.55375 22 33 C22 33.66 22 34.32 22 35 C22.53753906 35.21011719 23.07507813 35.42023438 23.62890625 35.63671875 C26.90338288 37.51940795 29.3317159 40.12213364 31.9375 42.8125 C32.44990234 43.33392578 32.96230469 43.85535156 33.49023438 44.39257812 C34.50849461 45.42895227 35.52528025 46.46677747 36.54052734 47.50610352 C39.75429378 50.79567141 42.93063532 54.03318204 46.5 56.9375 C48.85330408 58.91653132 50.87562451 60.92425824 52.8125 63.3125 C54.71869511 66.03075197 54.71869511 66.03075197 57 67 C57 67.66 57 68.32 57 69 C57.66 69 58.32 69 59 69 C57.60240095 65.45481116 57.60240095 65.45481116 56 62 C54.90464716 56.17088453 54.88211591 50.4800767 54.9375 44.5625 C54.94201172 43.64017578 54.94652344 42.71785156 54.95117188 41.76757812 C54.96286062 39.51164952 54.97924545 37.25586033 55 35 C55.33 35 55.66 35 56 35 C56.10957031 35.85980469 56.21914062 36.71960938 56.33203125 37.60546875 C57.44124367 45.87496298 58.8962618 53.92565245 61 62 C61.22945313 62.99773437 61.45890625 63.99546875 61.6953125 65.0234375 C65.06498386 77.48795 74.91793895 86.30349815 84 95 C85.0022753 95.99771951 86.00304412 96.99696512 87 98 C85.68 98 84.36 98 83 98 C83 97.34 83 96.68 83 96 C82.195625 95.690625 82.195625 95.690625 81.375 95.375 C78.55314513 93.74129455 76.66259269 91.72413902 74.46484375 89.33984375 C72.92498332 87.74891301 72.92498332 87.74891301 70 87 C68.6328125 85.64453125 68.6328125 85.64453125 67.125 83.8125 C63.68933324 79.77139728 60.15682776 75.83714346 56.5625 71.9375 C56.03736816 71.36040283 55.51223633 70.78330566 54.97119141 70.1887207 C51.56256989 66.49839925 47.96595716 63.18914916 44.1574707 59.91723633 C40.03308878 56.25210436 36.19265901 52.29497122 32.3125 48.375 C31.07016602 47.12589844 31.07016602 47.12589844 29.80273438 45.8515625 C28.26224765 44.30244214 26.72280072 42.75228646 25.18481445 41.20068359 C24.46382568 40.47445801 23.74283691 39.74823242 23 39 C22.19054932 38.18329834 21.38109863 37.36659668 20.54711914 36.52514648 C18.03449699 34.0341994 15.46917951 31.61330667 12.8828125 29.19921875 C11.45243794 27.83090589 10.0221279 26.46251779 8.59570312 25.09008789 C7.61225729 24.1521901 6.62093104 23.22248902 5.62207031 22.30102539 C-2.69480051 14.60996501 -2.69480051 14.60996501 -3.44458008 10.65478516 C-3.01821773 6.94437213 -1.58097332 3.37274309 0 0 Z " fill="#061254" transform="translate(50,141)"/>
<path d="M0 0 C1.66666667 1.66666667 3.33333333 3.33333333 5 5 C6.11375 6.051875 6.11375 6.051875 7.25 7.125 C9 9 9 9 10 12 C11.11927671 13.18711166 12.24933056 14.36578973 13.4296875 15.4921875 C14.56135463 16.57881315 15.66798147 17.69173193 16.7578125 18.8203125 C31.39501244 33.94197717 31.39501244 33.94197717 50 42 C50 42.66 50 43.32 50 44 C50.57621094 44.1340625 51.15242188 44.268125 51.74609375 44.40625 C53.92301146 44.97971879 55.96312575 45.69099258 58.0625 46.5 C60.3667129 47.3845347 62.65677439 48.2189248 65 49 C65 49.66 65 50.32 65 51 C66.9490625 51.185625 66.9490625 51.185625 68.9375 51.375 C81.80213904 52.80213904 81.80213904 52.80213904 84 55 C86.68862664 55.39993686 89.36352217 55.75134543 92.0625 56.0625 C92.82111328 56.15337891 93.57972656 56.24425781 94.36132812 56.33789062 C96.2404301 56.5624374 98.12016095 56.78170978 100 57 C100 57.33 100 57.66 100 58 C88.29987659 58.78145537 77.38621021 56.42871368 66 54 C66 53.34 66 52.68 66 52 C65.31292969 51.86722656 64.62585938 51.73445313 63.91796875 51.59765625 C63.01691406 51.42105469 62.11585937 51.24445313 61.1875 51.0625 C60.29417969 50.88847656 59.40085938 50.71445312 58.48046875 50.53515625 C56 50 56 50 53 49 C53 48.34 53 47.68 53 47 C50.36 46.34 47.72 45.68 45 45 C45 44.34 45 43.68 45 43 C44.175 42.773125 43.35 42.54625 42.5 42.3125 C38.33490514 40.75058943 34.4999057 38.77149893 31 36 C31 35.34 31 34.68 31 34 C30.28714844 33.75507813 29.57429688 33.51015625 28.83984375 33.2578125 C21.46296366 29.99047359 15.07952042 23.86232979 10.546875 17.25 C7.79749863 13.2509071 4.73252149 9.47046087 1.7578125 5.63671875 C0 3 0 3 0 0 Z " fill="#355FFA" transform="translate(65,253)"/>
<path d="M0 0 C3.63117185 1.81558592 4.85091151 2.67579375 7.3125 5.625 C7.91449219 6.33527344 8.51648438 7.04554688 9.13671875 7.77734375 C9.75160156 8.51082031 10.36648437 9.24429688 11 10 C14.86403883 14.49019438 18.75544573 18.86155959 23 23 C23.4640625 23.49757812 23.928125 23.99515625 24.40625 24.5078125 C30.16998226 30.58233425 37.4650917 37.23254585 45 41 C45 41.66 45 42.32 45 43 C45.639375 43.0825 46.27875 43.165 46.9375 43.25 C51.20541517 44.29520372 55.03107667 46.14091826 59 48 C58.505 48.99 58.505 48.99 58 50 C44.67603026 46.3310808 32.06961311 37.46007644 23 27 C23 26.34 23 25.68 23 25 C22.01 24.67 21.02 24.34 20 24 C20 23.34 20 22.68 20 22 C19.15695313 21.66355469 19.15695313 21.66355469 18.296875 21.3203125 C15.32724583 19.61328077 13.49655833 17.45193456 11.25 14.875 C10.45078125 13.96492187 9.6515625 13.05484375 8.828125 12.1171875 C7.92320312 11.06917969 7.92320312 11.06917969 7 10 C6.67 11.32 6.34 12.64 6 14 C6.66 14.33 7.32 14.66 8 15 C8.40802359 26.31132055 6.60433428 37.02459125 4 48 C3.67 48 3.34 48 3 48 C2.87413963 40.70009833 2.87413963 40.70009833 3.5 37.21875 C3.9792558 34.1335408 4.11441897 31.28192842 4.09765625 28.1640625 C4.09443359 27.10058594 4.09121094 26.03710938 4.08789062 24.94140625 C4.07951172 23.84699219 4.07113281 22.75257813 4.0625 21.625 C4.05798828 20.50738281 4.05347656 19.38976562 4.04882812 18.23828125 C4.03709244 15.49213196 4.02067363 12.74609414 4 10 C3.34 10 2.68 10 2 10 C1.34 6.7 0.68 3.4 0 0 Z " fill="#1C389C" transform="translate(236,157)"/>
<path d="M0 0 C0.33 0 0.66 0 1 0 C1.23485107 0.88679443 1.46970215 1.77358887 1.71166992 2.68725586 C3.15929007 6.40959011 4.76730537 8.22911399 7.61328125 11.00390625 C8.53173828 11.90947266 9.45019531 12.81503906 10.39648438 13.74804688 C11.36823404 14.68646261 12.34024132 15.62461165 13.3125 16.5625 C14.27371053 17.50361441 15.23400589 18.4456645 16.19335938 19.38867188 C17.96982376 21.13037665 19.75037704 22.86792814 21.53637695 24.59985352 C25.85642823 28.80859637 30.09405358 33.09934097 34.34375 37.37890625 C35.87184217 38.9143709 37.40041363 40.44935661 38.92919922 41.98413086 C39.97729529 43.03727682 41.02449504 44.09131556 42.07080078 45.14624023 C43.59689325 46.68452806 45.12625186 48.21950418 46.65625 49.75390625 C47.56181641 50.66470947 48.46738281 51.5755127 49.40039062 52.51391602 C51.94938324 55.04778664 51.94938324 55.04778664 54.83398438 57.14038086 C55.54876953 57.75405518 56.26355469 58.36772949 57 59 C57 59.99 57 60.98 57 62 C53.77594239 60.58593181 51.66442424 58.89002371 49.21484375 56.375 C48.17166992 55.31539062 48.17166992 55.31539062 47.10742188 54.234375 C46.39134766 53.49703125 45.67527344 52.7596875 44.9375 52 C43.51140161 50.53943012 42.08310516 49.08100233 40.65234375 47.625 C40.02320068 46.97789062 39.39405762 46.33078125 38.74584961 45.6640625 C36.89948066 43.8083697 36.89948066 43.8083697 34 42 C34 41.34 34 40.68 34 40 C33.46536133 39.78988281 32.93072266 39.57976562 32.37988281 39.36328125 C29.0754585 37.47038985 26.58405497 34.86934474 23.921875 32.1875 C23.35043762 31.61797607 22.77900024 31.04845215 22.19024658 30.46166992 C20.98765211 29.2604332 19.78756666 28.05668003 18.58984375 26.85058594 C16.74959283 24.99959045 14.89887367 23.15954554 13.046875 21.3203125 C11.87956616 20.15168276 10.71287749 18.98243316 9.546875 17.8125 C8.99070496 17.26037842 8.43453491 16.70825684 7.86151123 16.1394043 C4 12.22993635 4 12.22993635 4 10 C3.34 10 2.68 10 2 10 C2 9.34 2 8.68 2 8 C1.01 7.67 0.02 7.34 -1 7 C-0.67 4.69 -0.34 2.38 0 0 Z " fill="#3B71EA" transform="translate(46,149)"/>
<path d="M0 0 C0.33 0 0.66 0 1 0 C1.10957031 0.85980469 1.21914062 1.71960938 1.33203125 2.60546875 C2.44124367 10.87496298 3.8962618 18.92565245 6 27 C6.22945313 27.99773437 6.45890625 28.99546875 6.6953125 30.0234375 C10.06498386 42.48795 19.91793895 51.30349815 29 60 C30.0022753 60.99771951 31.00304412 61.99696512 32 63 C30.68 63 29.36 63 28 63 C28 62.34 28 61.68 28 61 C27.46375 60.79375 26.9275 60.5875 26.375 60.375 C23.55314513 58.74129455 21.66259269 56.72413902 19.46484375 54.33984375 C17.92498332 52.74891301 17.92498332 52.74891301 15 52 C13.421875 50.43359375 13.421875 50.43359375 11.75 48.4375 C8.66116439 44.7822681 5.49896663 41.2098489 2.28515625 37.6640625 C1 36 1 36 1 34 C1.99 34 2.98 34 4 34 C2.60240095 30.45481116 2.60240095 30.45481116 1 27 C-0.09535284 21.17088453 -0.11788409 15.4800767 -0.0625 9.5625 C-0.05798828 8.64017578 -0.05347656 7.71785156 -0.04882812 6.76757812 C-0.03713938 4.51164952 -0.02075455 2.25586033 0 0 Z " fill="#0D1854" transform="translate(105,176)"/>
<path d="M0 0 C0.6568277 -0.00095673 1.3136554 -0.00191345 1.99038696 -0.00289917 C3.3702199 -0.00357489 4.75005612 -0.00176341 6.12988281 0.00244141 C8.21426733 0.007781 10.29843471 0.00248453 12.3828125 -0.00390625 C19.27741282 -0.00699329 26.01717565 0.17811988 32.8515625 1.1328125 C32.8515625 1.7928125 32.8515625 2.4528125 32.8515625 3.1328125 C34.09873047 3.22369141 34.09873047 3.22369141 35.37109375 3.31640625 C36.45777344 3.40019531 37.54445312 3.48398437 38.6640625 3.5703125 C39.74300781 3.65152344 40.82195312 3.73273437 41.93359375 3.81640625 C44.8515625 4.1328125 44.8515625 4.1328125 47.8515625 5.1328125 C48.5390625 7.1953125 48.5390625 7.1953125 48.8515625 9.1328125 C48.14515625 8.93945312 47.43875 8.74609375 46.7109375 8.546875 C37.92730844 6.31786361 29.26865156 5.34966596 20.2578125 4.5625 C17.06531838 4.27726458 13.97892161 3.86338409 10.8515625 3.1328125 C10.8515625 2.8028125 10.8515625 2.4728125 10.8515625 2.1328125 C2.6015625 2.1328125 -5.6484375 2.1328125 -14.1484375 2.1328125 C-14.1484375 1.8028125 -14.1484375 1.4728125 -14.1484375 1.1328125 C-9.38683673 0.36599146 -4.82112411 0.00451356 0 0 Z " fill="#5479FB" transform="translate(163.1484375,51.8671875)"/>
<path d="M0 0 C-1.54074601 3.46667851 -3.62742241 6.05030894 -6 9 C-11.78629449 16.20252041 -14.74154318 23.0503388 -17 32 C-17.66 32 -18.32 32 -19 32 C-19.66 38.93 -20.32 45.86 -21 53 C-21.33 53 -21.66 53 -22 53 C-23.82597314 36.69823977 -20.56088509 22.64763571 -10.68505859 9.2109375 C-3.22259266 0 -3.22259266 0 0 0 Z " fill="#1A31CB" transform="translate(128,133)"/>
<path d="M0 0 C1.2380014 3.57644848 0.74926071 6.33694766 0 10 C0.66 10.33 1.32 10.66 2 11 C2 11.66 2 12.32 2 13 C2.66 13 3.32 13 4 13 C4 14.32 4 15.64 4 17 C4.8353125 17.309375 4.8353125 17.309375 5.6875 17.625 C8.2852528 19.16960977 9.84350571 21.06545197 11.7109375 23.4140625 C14.24407105 26.53058439 16.94062001 29.3128346 20.3125 31.5 C22 33 22 33 22.25 35.6875 C22.1675 36.450625 22.085 37.21375 22 38 C21.27603027 37.26950439 20.55206055 36.53900879 19.80615234 35.78637695 C17.28039204 33.27841607 14.7077534 30.84166982 12.1015625 28.41796875 C10.27544864 26.67510031 8.44994465 24.93159267 6.625 23.1875 C5.21541016 21.89102539 5.21541016 21.89102539 3.77734375 20.56835938 C-2.78113002 14.22530993 -2.78113002 14.22530993 -3.41333008 10.68603516 C-2.98492336 6.957831 -1.58813972 3.38803141 0 0 Z " fill="#06135D" transform="translate(50,141)"/>
<path d="M0 0 C5.69344467 0.48387996 10.22959152 1.63521405 15.375 4.1875 C16.02275391 4.49993652 16.67050781 4.81237305 17.33789062 5.13427734 C25.36901802 9.06809422 32.81207054 13.68718257 40 19 C39.01 19.66 38.02 20.32 37 21 C36.34 20.67 35.68 20.34 35 20 C35 19.34 35 18.68 35 18 C34.26910156 17.72800781 33.53820312 17.45601562 32.78515625 17.17578125 C30.11660687 16.04922674 27.87111079 14.74814042 25.4375 13.1875 C17.47536868 8.32241231 8.7354531 5.19180017 0 2 C0 1.34 0 0.68 0 0 Z " fill="#2350FB" transform="translate(213,60)"/>
<path d="M0 0 C-0.71097811 3.69708617 -2.29705187 6.65492332 -4 10 C-6.46289488 15.28318144 -8.87030435 20.57271108 -11 26 C-11.66 26 -12.32 26 -13 26 C-13.66 28.31 -14.32 30.62 -15 33 C-16.10844919 29.67465243 -15.84454356 27.37817425 -15 24 C-14.34 24 -13.68 24 -13 24 C-12.34 20.7 -11.68 17.4 -11 14 C-10.34 14 -9.68 14 -9 14 C-8.82984375 13.32453125 -8.6596875 12.6490625 -8.484375 11.953125 C-5.23699422 0 -5.23699422 0 0 0 Z " fill="#192FBB" transform="translate(63,116)"/>
<path d="M0 0 C4.95 0.99 4.95 0.99 10 2 C10 2.66 10 3.32 10 4 C11.299375 4.12375 12.59875 4.2475 13.9375 4.375 C26.80213904 5.80213904 26.80213904 5.80213904 29 8 C31.68862664 8.39993686 34.36352217 8.75134543 37.0625 9.0625 C37.82111328 9.15337891 38.57972656 9.24425781 39.36132812 9.33789062 C41.2404301 9.5624374 43.12016095 9.78170978 45 10 C45 10.33 45 10.66 45 11 C33.29987659 11.78145537 22.38621021 9.42871368 11 7 C11 6.34 11 5.68 11 5 C10.113125 4.9175 9.22625 4.835 8.3125 4.75 C4.58744536 3.9065914 2.79071162 2.54447236 0 0 Z " fill="#1B4CF9" transform="translate(120,300)"/>
<path d="M0 0 C0.33 0 0.66 0 1 0 C1.24024902 0.89219238 1.48049805 1.78438477 1.72802734 2.70361328 C3.12223663 6.31678292 4.59450592 8.05865243 7.3515625 10.7421875 C8.20234375 11.58007812 9.053125 12.41796875 9.9296875 13.28125 C11.26386719 14.56515625 11.26386719 14.56515625 12.625 15.875 C13.5221875 16.75414062 14.419375 17.63328125 15.34375 18.5390625 C17.5537348 20.70202635 19.77251595 22.85508593 22 25 C20.21582031 25.6809082 20.21582031 25.6809082 18 26 C16.26074219 24.86010742 16.26074219 24.86010742 14.546875 23.10546875 C13.928125 22.47962891 13.309375 21.85378906 12.671875 21.20898438 C12.03765625 20.54189453 11.4034375 19.87480469 10.75 19.1875 C9.77546875 18.20426758 9.77546875 18.20426758 8.78125 17.20117188 C4 12.29436384 4 12.29436384 4 10 C3.34 10 2.68 10 2 10 C2 9.34 2 8.68 2 8 C1.01 7.67 0.02 7.34 -1 7 C-0.67 4.69 -0.34 2.38 0 0 Z " fill="#3869E1" transform="translate(46,149)"/>
<path d="M0 0 C7.43641778 1.4077851 12.51685554 7.30519487 17 13 C17.845625 13.845625 18.69125 14.69125 19.5625 15.5625 C22 18 22 18 24.1875 20.75 C25.80309077 23.07487388 25.80309077 23.07487388 28 24 C27.67 24.66 27.34 25.32 27 26 C23.26546181 24.50949695 21.56370372 22.4440824 19.1875 19.25 C14.07763848 12.6761301 8.27212968 8.07444448 1.50390625 3.296875 C1.00761719 2.86890625 0.51132813 2.4409375 0 2 C0 1.34 0 0.68 0 0 Z " fill="#254FF9" transform="translate(252,81)"/>
<path d="M0 0 C4.09319216 0.51965744 6.0963352 1.60106806 9.0625 4.4375 C11.59249184 6.83723484 13.80206062 8.58265048 17 10 C17 10.66 17 11.32 17 12 C17.639375 12.0825 18.27875 12.165 18.9375 12.25 C23.20541517 13.29520372 27.03107667 15.14091826 31 17 C30.67 17.66 30.34 18.32 30 19 C18.24571831 15.76331374 8.98824305 9.11675941 0 1 C0 0.67 0 0.34 0 0 Z " fill="#2745A7" transform="translate(264,188)"/>
<path d="M0 0 C1.32 0 2.64 0 4 0 C3.61028874 6.55789986 2.56821572 11.97370435 0 18 C-0.33515625 18.88558594 -0.6703125 19.77117187 -1.015625 20.68359375 C-3.7492338 27.8746169 -3.7492338 27.8746169 -6 29 C-5.40380045 24.13103697 -4.43023178 19.67209049 -3 15 C-2.34 15 -1.68 15 -1 15 C-0.67 10.05 -0.34 5.1 0 0 Z " fill="#1A37C1" transform="translate(296,206)"/>
<path d="M0 0 C0.33 0 0.66 0 1 0 C1.65232892 8.56725315 0.87750563 13.93078405 -4 21 C-4.52722656 21.84304687 -5.05445313 22.68609375 -5.59765625 23.5546875 C-8.51918666 28.16309665 -8.51918666 28.16309665 -10 30 C-10.66 30 -11.32 30 -12 30 C-10.66109105 25.25295916 -8.58478461 21.28365072 -6.12109375 17.05078125 C-4.87037269 14.90708975 -4.87037269 14.90708975 -4 12 C-3.34 12 -2.68 12 -2 12 C-1.34 8.04 -0.68 4.08 0 0 Z " fill="#2743C9" transform="translate(238,197)"/>
<path d="M0 0 C0.33 0.66 0.66 1.32 1 2 C1.66 2.33 2.32 2.66 3 3 C3.40802359 14.31132055 1.60433428 25.02459125 -1 36 C-1.33 36 -1.66 36 -2 36 C-2.12653261 28.66110839 -2.12653261 28.66110839 -1.49609375 25.3671875 C-0.82478371 20.81073669 -0.93375856 16.34715618 -1 11.75 C-1.02545064 9.95318447 -1.04650364 8.15629957 -1.0625 6.359375 C-1.07410156 5.57014648 -1.08570313 4.78091797 -1.09765625 3.96777344 C-1 2 -1 2 0 0 Z " fill="#1733B1" transform="translate(241,169)"/>
<path d="M0 0 C6.66666667 6.66666667 13.33333333 13.33333333 20 20 C18.68 20 17.36 20 16 20 C16 19.34 16 18.68 16 18 C15.46375 17.79375 14.9275 17.5875 14.375 17.375 C11.55314513 15.74129455 9.66259269 13.72413902 7.46484375 11.33984375 C5.92498332 9.74891301 5.92498332 9.74891301 3 9 C1.61328125 7.37109375 1.61328125 7.37109375 0.3125 5.4375 C-0.12449219 4.79683594 -0.56148438 4.15617188 -1.01171875 3.49609375 C-1.50091797 2.75552734 -1.50091797 2.75552734 -2 2 C-1.34 2 -0.68 2 0 2 C0 1.34 0 0.68 0 0 Z " fill="#283474" transform="translate(117,219)"/>
<path d="M0 0 C-6.18893855 5.65076998 -13.88826466 6.33655205 -21.91015625 6.10546875 C-22.59980469 6.07066406 -23.28945312 6.03585938 -24 6 C-24 5.67 -24 5.34 -24 5 C-20.7 5 -17.4 5 -14 5 C-14 4.34 -14 3.68 -14 3 C-14.75023437 3.24556641 -14.75023437 3.24556641 -15.515625 3.49609375 C-18.9263468 4.1878911 -22.28735757 4.10504665 -25.75 4.0625 C-26.44738281 4.05798828 -27.14476562 4.05347656 -27.86328125 4.04882812 C-29.57555803 4.0371002 -31.28779033 4.01916653 -33 4 C-33 3.67 -33 3.34 -33 3 C-32.35973877 2.94465088 -31.71947754 2.88930176 -31.05981445 2.83227539 C-28.1437846 2.57855835 -25.22814766 2.32057051 -22.3125 2.0625 C-20.80139648 1.93198242 -20.80139648 1.93198242 -19.25976562 1.79882812 C-18.28330078 1.71181641 -17.30683594 1.62480469 -16.30078125 1.53515625 C-15.40528564 1.456604 -14.50979004 1.37805176 -13.5871582 1.29711914 C-10.98217202 1.03494238 -10.98217202 1.03494238 -8.37573242 0.47045898 C-5.54765886 -0.08957572 -2.87547687 -0.06687156 0 0 Z " fill="#4D6BEF" transform="translate(199,246)"/>
<path d="M0 0 C0.33 0 0.66 0 1 0 C1.10957031 0.85980469 1.21914062 1.71960938 1.33203125 2.60546875 C2.32538423 10.01119784 3.6284414 17.11690037 5.51171875 24.35546875 C6 27 6 27 5 30 C3.0625 29.5 3.0625 29.5 1 28 C-0.12071143 21.83608712 -0.12153733 15.74887443 -0.0625 9.5 C-0.05798828 8.5821875 -0.05347656 7.664375 -0.04882812 6.71875 C-0.03716326 4.47909609 -0.02079614 2.23958455 0 0 Z " fill="#0D1675" transform="translate(105,176)"/>
<path d="M0 0 C1.72795352 0.06802967 3.45835365 0.08495645 5.1875 0.0625 C6.08855469 0.05347656 6.98960937 0.04445312 7.91796875 0.03515625 C8.94857422 0.01775391 8.94857422 0.01775391 10 0 C6.37469786 3.62530214 0.43044412 3.04745459 -4.5 3.09765625 C-6.0000316 3.09113437 -7.5000494 3.07939719 -9 3.0625 C-10.16208984 3.05573242 -10.16208984 3.05573242 -11.34765625 3.04882812 C-13.23180524 3.03719758 -15.11591365 3.01926906 -17 3 C-15 0 -15 0 -12.28515625 -0.546875 C-11.22167969 -0.61390625 -10.15820312 -0.6809375 -9.0625 -0.75 C-8.00160156 -0.82734375 -6.94070313 -0.9046875 -5.84765625 -0.984375 C-3 -1 -3 -1 0 0 Z " fill="#305CF7" transform="translate(315,203)"/>
<path d="M0 0 C1.66666667 1.66666667 3.33333333 3.33333333 5 5 C6.11375 6.051875 6.11375 6.051875 7.25 7.125 C9 9 9 9 10 12 C11.62449243 13.70779973 13.29220027 15.37550757 15 17 C15.66 17.66 16.32 18.32 17 19 C16.67 19.99 16.34 20.98 16 22 C12.5299724 18.62209703 9.36300616 15.13504664 6.3125 11.375 C5.54550781 10.43398438 4.77851562 9.49296875 3.98828125 8.5234375 C0 3.46168959 0 3.46168959 0 0 Z " fill="#2550F9" transform="translate(65,253)"/>
<path d="M0 0 C1.01771484 0.00451172 2.03542969 0.00902344 3.08398438 0.01367188 C5.57688509 0.02537563 8.06966074 0.04177152 10.5625 0.0625 C10.5625 0.3925 10.5625 0.7225 10.5625 1.0625 C6.16717325 1.56702107 1.77116362 2.06532816 -2.625 2.5625 C-3.87087891 2.70558594 -5.11675781 2.84867188 -6.40039062 2.99609375 C-7.60244141 3.13144531 -8.80449219 3.26679687 -10.04296875 3.40625 C-11.70042114 3.59477539 -11.70042114 3.59477539 -13.39135742 3.78710938 C-16.09695712 4.03171276 -18.72346085 4.11549995 -21.4375 4.0625 C-19.63132602 1.61885285 -18.54684494 1.08483929 -15.53125 0.46875 C-10.37222346 -0.17203571 -5.1893082 -0.04389135 0 0 Z " fill="#1549FA" transform="translate(169.4375,52.9375)"/>
<path d="M0 0 C0.99 0.495 0.99 0.495 2 1 C2.6328125 3.94140625 2.6328125 3.94140625 3.125 7.5625 C3.29257812 8.76003906 3.46015625 9.95757812 3.6328125 11.19140625 C3.75398438 12.11824219 3.87515625 13.04507813 4 14 C4.99 14.33 5.98 14.66 7 15 C7.33 18.3 7.66 21.6 8 25 C7.67 24.34 7.34 23.68 7 23 C6.34 23 5.68 23 5 23 C4.72285156 22.00097656 4.44570313 21.00195312 4.16015625 19.97265625 C3.79444451 18.66922209 3.42854962 17.36583931 3.0625 16.0625 C2.88009766 15.40314453 2.69769531 14.74378906 2.50976562 14.06445312 C1.77403899 10.76178827 1.77403899 10.76178827 0 8 C-0.14115161 5.32941149 -0.04247107 2.67567762 0 0 Z " fill="#204DF9" transform="translate(47,210)"/>
<path d="M0 0 C4.26242517 2.02972627 8.11164957 4.32675908 12 7 C13.12381439 7.75177538 14.24878132 8.50183125 15.375 9.25 C16.24125 9.8275 17.1075 10.405 18 11 C17.01 11.66 16.02 12.32 15 13 C14.34 12.67 13.68 12.34 13 12 C13 11.34 13 10.68 13 10 C12.34 9.773125 11.68 9.54625 11 9.3125 C8.42919876 8.18777446 6.09951824 6.98486244 3.6875 5.5625 C2.99011719 5.15128906 2.29273438 4.74007812 1.57421875 4.31640625 C1.05472656 3.88199219 0.53523437 3.44757813 0 3 C0 2.01 0 1.02 0 0 Z " fill="#2D57FA" transform="translate(235,68)"/>
<path d="M0 0 C0.33 0 0.66 0 1 0 C1.33 2.97 1.66 5.94 2 9 C1.67 9 1.34 9 1 9 C0.67 18.57 0.34 28.14 0 38 C-0.33 38 -0.66 38 -1 38 C-1.02464928 32.74894558 -1.04283568 27.49792455 -1.05493164 22.24682617 C-1.05997218 20.45905979 -1.06680454 18.67129755 -1.07543945 16.88354492 C-1.0875173 14.31948832 -1.09323094 11.75548603 -1.09765625 9.19140625 C-1.10281754 8.3872377 -1.10797882 7.58306915 -1.11329651 6.75453186 C-1.11349215 4.83598285 -1.06201983 2.91754632 -1 1 C-0.67 0.67 -0.34 0.34 0 0 Z " fill="#4268F9" transform="translate(44,160)"/>
<path d="M0 0 C8.58 0 17.16 0 26 0 C26 0.66 26 1.32 26 2 C7.22319635 4.28091324 7.22319635 4.28091324 0 1 C0 0.67 0 0.34 0 0 Z " fill="#1A3BEA" transform="translate(159,249)"/>
<path d="M0 0 C0 0.99 0 1.98 0 3 C-2.3359375 4.7890625 -2.3359375 4.7890625 -5.375 6.625 C-6.37273437 7.23601562 -7.37046875 7.84703125 -8.3984375 8.4765625 C-9.90800957 9.36054614 -11.43533137 10.21766568 -13 11 C-13.66 10.34 -14.32 9.68 -15 9 C-13.20966193 7.68568828 -11.41768797 6.3736047 -9.625 5.0625 C-8.62726563 4.33160156 -7.62953125 3.60070312 -6.6015625 2.84765625 C-2.59196617 0 -2.59196617 0 0 0 Z " fill="#264EF8" transform="translate(110,68)"/>
<path d="M0 0 C0 0.66 0 1.32 0 2 C-7.36897561 5.06446761 -14.01790621 6.69121494 -22 7 C-18.73392316 5.31450853 -15.48855291 4.16285097 -12 3 C-10.824375 2.46375 -9.64875 1.9275 -8.4375 1.375 C-5.25144948 0.10057979 -3.3631346 -0.30573951 0 0 Z " fill="#214EFA" transform="translate(220,302)"/>
<path d="M0 0 C4.95 0.99 4.95 0.99 10 2 C10 2.66 10 3.32 10 4 C12.97 4.33 15.94 4.66 19 5 C19 5.99 19 6.98 19 8 C16.36 7.67 13.72 7.34 11 7 C11 6.34 11 5.68 11 5 C10.113125 4.9175 9.22625 4.835 8.3125 4.75 C4.58744536 3.9065914 2.79071162 2.54447236 0 0 Z " fill="#345FF9" transform="translate(120,300)"/>
<path d="M0 0 C0 4.46153846 0 4.46153846 -1 7 C-2.61736259 8.3927289 -4.2925002 9.71937515 -6 11 C-7.68528688 12.64783606 -9.35697047 14.31002677 -11 16 C-11.66 15.67 -12.32 15.34 -13 15 C-12.39671875 14.33613281 -11.7934375 13.67226562 -11.171875 12.98828125 C-10.37265625 12.10527344 -9.5734375 11.22226563 -8.75 10.3125 C-7.96109375 9.44238281 -7.1721875 8.57226562 -6.359375 7.67578125 C-4.15500436 5.17579137 -2.05866059 2.62054272 0 0 Z " fill="#3F5AD8" transform="translate(227,222)"/>
<path d="M0 0 C0 0.33 0 0.66 0 1 C-7.42640842 2.60881575 -14.40501039 3.26442904 -22 3 C-20.3514337 1.02172044 -19.36499937 0.09223811 -16.8359375 -0.546875 C-11.03928157 -1.02532914 -5.76010334 -0.83614403 0 0 Z " fill="#466EF9" transform="translate(204,309)"/>
<path d="M0 0 C0 0.66 0 1.32 0 2 C4.29 2 8.58 2 13 2 C13 2.33 13 2.66 13 3 C-8.00917431 3.19877676 -8.00917431 3.19877676 -17 2 C-17 1.67 -17 1.34 -17 1 C-14.9168207 0.83141902 -12.83344956 0.66520745 -10.75 0.5 C-9.58984375 0.4071875 -8.4296875 0.314375 -7.234375 0.21875 C-4.82731342 0.05595356 -2.41256049 0 0 0 Z " fill="#527AF9" transform="translate(169,310)"/>
<path d="M0 0 C0.86688859 2.89910284 1.0458562 5.11452831 0.66015625 8.109375 C0.56669922 8.86347656 0.47324219 9.61757812 0.37695312 10.39453125 C0.27318359 11.17183594 0.16941406 11.94914063 0.0625 12.75 C-0.03740234 13.54277344 -0.13730469 14.33554688 -0.24023438 15.15234375 C-0.48692871 17.10240371 -0.7425878 19.05132586 -1 21 C-1.33 21 -1.66 21 -2 21 C-2.19585135 18.60458732 -2.38192107 16.20907226 -2.5625 13.8125 C-2.61857422 13.13896484 -2.67464844 12.46542969 -2.73242188 11.77148438 C-3.00778807 8.00814637 -3.13970152 4.62384135 -2 1 C-1.34 0.67 -0.68 0.34 0 0 Z " fill="#1F2C9F" transform="translate(108,165)"/>
<path d="M0 0 C1.2380014 3.57644848 0.74926071 6.33694766 0 10 C0.66 10.33 1.32 10.66 2 11 C2 11.66 2 12.32 2 13 C2.66 13 3.32 13 4 13 C3.67 13.99 3.34 14.98 3 16 C2.34 15.34 1.68 14.68 1 14 C0.01 14 -0.98 14 -2 14 C-2.33 13.67 -2.66 13.34 -3 13 C-2.60537976 8.26455717 -2.03464238 4.34057042 0 0 Z " fill="#061479" transform="translate(50,141)"/>
<path d="M0 0 C2.50719458 2.32649587 4.32183601 4.82681521 6.1875 7.6875 C6.71730469 8.49574219 7.24710937 9.30398437 7.79296875 10.13671875 C8.39044922 11.05904297 8.39044922 11.05904297 9 12 C8.01 13.485 8.01 13.485 7 15 C6.16121545 13.71186658 5.32913217 12.41936744 4.5 11.125 C4.0359375 10.40570313 3.571875 9.68640625 3.09375 8.9453125 C2 7 2 7 2 5 C1.34 5 0.68 5 0 5 C0 3.35 0 1.7 0 0 Z " fill="#2B51F5" transform="translate(327,175)"/>
<path d="M0 0 C0.99 0.66 1.98 1.32 3 2 C2.60446947 3.6510403 2.18286103 5.2958515 1.75 6.9375 C1.51796875 7.85402344 1.2859375 8.77054688 1.046875 9.71484375 C0 12 0 12 -2.109375 12.81640625 C-2.73328125 12.87699219 -3.3571875 12.93757812 -4 13 C-3.40895235 8.15340923 -2.02055843 4.39251833 0 0 Z " fill="#2132B7" transform="translate(111,153)"/>
<path d="M0 0 C0.33 0.66 0.66 1.32 1 2 C-5.06696699 2.77040851 -10.88514973 3.09706112 -17 3 C-17 2.34 -17 1.68 -17 1 C-11.33357449 -0.22517308 -5.76291482 -0.09228867 0 0 Z " fill="#1338E9" transform="translate(176,114)"/>
<path d="M0 0 C1.90625 0.359375 1.90625 0.359375 4 1 C5.5 3.25 5.5 3.25 7 6 C8.31037934 7.68477344 9.63823078 9.35648543 11 11 C10.67 11.66 10.34 12.32 10 13 C4.06405408 10.62562163 2.42383384 5.49746144 0 0 Z " fill="#375BF7" transform="translate(295,131)"/>
<path d="M0 0 C0.66 0.33 1.32 0.66 2 1 C-0.04207888 3.96101437 -2.02265603 5.98591437 -5 8 C-5.825 8.598125 -6.65 9.19625 -7.5 9.8125 C-8.325 10.204375 -9.15 10.59625 -10 11 C-12.15625 10.07421875 -12.15625 10.07421875 -14 9 C-12.80375 8.443125 -11.6075 7.88625 -10.375 7.3125 C-6.3792825 5.32886089 -3.30815324 2.97733792 0 0 Z " fill="#4460E7" transform="translate(216,233)"/>
<path d="M0 0 C-2.24151882 2.24151882 -4.0067112 2.96301325 -6.9375 4.125 C-7.81277344 4.47820312 -8.68804687 4.83140625 -9.58984375 5.1953125 C-12 6 -12 6 -15 6 C-14 3 -14 3 -12.36328125 2.05078125 C-8.08873693 0.5119453 -4.61594432 -0.34619582 0 0 Z " fill="#1737E1" transform="translate(158,117)"/>
<path d="M0 0 C1 3 1 3 -0.1875 6.4375 C-1.84375447 9.69289671 -3.26548253 11.64265735 -6 14 C-5.57202798 8.29370646 -3.15654048 4.58921384 0 0 Z " fill="#2947CF" transform="translate(288,237)"/>
<path d="M0 0 C0.66 0 1.32 0 2 0 C1.624653 2.57775071 1.28516942 3.74081565 -0.671875 5.51953125 C-6.33287577 9.04169526 -6.33287577 9.04169526 -10 8.8125 C-10.66 8.544375 -11.32 8.27625 -12 8 C-8.25 6 -8.25 6 -6 6 C-5.67 5.01 -5.34 4.02 -5 3 C-3.35 2.67 -1.7 2.34 0 2 C0 1.34 0 0.68 0 0 Z " fill="#3053F6" transform="translate(338,192)"/>
<path d="M0 0 C0.9681648 3.8726592 1.07622858 7.03611362 1 11 C0.01 11.33 -0.98 11.66 -2 12 C-3.22969878 15.51190809 -3.22969878 15.51190809 -4 19 C-5.10844919 15.67465243 -4.84454356 13.37817425 -4 10 C-3.34 10 -2.68 10 -2 10 C-1.34 6.7 -0.68 3.4 0 0 Z " fill="#404CAB" transform="translate(52,130)"/>
<path d="M0 0 C3.33333333 3.33333333 6.66666667 6.66666667 10 10 C9.67 10.66 9.34 11.32 9 12 C4.7835599 10.43835552 2.58130177 7.58514135 0 4 C0 2.68 0 1.36 0 0 Z " fill="#2F56F8" transform="translate(270,95)"/>
<path d="M0 0 C-1.39275254 3.3772445 -2.82273931 4.87070305 -5.9375 6.75 C-6.62714844 7.17796875 -7.31679687 7.6059375 -8.02734375 8.046875 C-10 9 -10 9 -13 9 C-13 8.34 -13 7.68 -13 7 C-12.030625 6.54625 -11.06125 6.0925 -10.0625 5.625 C-6.92920418 4.34213779 -6.92920418 4.34213779 -6 2 C-3.85118612 0.75230162 -2.50320403 0 0 0 Z " fill="#2851F7" transform="translate(249,286)"/>
<path d="M0 0 C0.99 0.33 1.98 0.66 3 1 C0.42215154 3.64752004 -1.91648098 5.94432065 -5 8 C-7.1875 7.625 -7.1875 7.625 -9 7 C-7.57277341 5.8001722 -6.13284224 4.6154424 -4.6875 3.4375 C-3.88699219 2.77621094 -3.08648437 2.11492187 -2.26171875 1.43359375 C-1.51535156 0.96050781 -0.76898438 0.48742187 0 0 Z " fill="#1A35D8" transform="translate(137,124)"/>
<path d="M0 0 C0.33 0 0.66 0 1 0 C1 3.96 1 7.92 1 12 C-0.32 12.33 -1.64 12.66 -3 13 C-3.33 14.32 -3.66 15.64 -4 17 C-4.33 16.34 -4.66 15.68 -5 15 C-4.67 14.01 -4.34 13.02 -4 12 C-3.34 12 -2.68 12 -2 12 C-1.34 8.04 -0.68 4.08 0 0 Z " fill="#3D55C8" transform="translate(238,197)"/>
<path d="M0 0 C1.98 0.99 1.98 0.99 4 2 C4.6875 5.5 4.6875 5.5 5 9 C5.33 9.66 5.66 10.32 6 11 C5.01 12.485 5.01 12.485 4 14 C4 12.68 4 11.36 4 10 C3.34 10 2.68 10 2 10 C1.34 6.7 0.68 3.4 0 0 Z " fill="#1D2A9F" transform="translate(236,157)"/>
<path d="M0 0 C2.07196631 0.73178866 4.1108552 1.55899003 6.125 2.4375 C7.22070312 2.91058594 8.31640625 3.38367188 9.4453125 3.87109375 C10.28835938 4.24363281 11.13140625 4.61617187 12 5 C11.67 5.66 11.34 6.32 11 7 C1.40546697 4.10933941 1.40546697 4.10933941 -2 1 C-1.34 0.67 -0.68 0.34 0 0 Z " fill="#284AB3" transform="translate(283,200)"/>
<path d="M0 0 C4.55015893 1.51671964 6.50057264 5.16891053 9 9 C8.67 9.66 8.34 10.32 8 11 C7.34 11 6.68 11 6 11 C4.6273318 9.02678947 3.29572383 7.02456848 2 5 C1.34 4.34 0.68 3.68 0 3 C0 2.01 0 1.02 0 0 Z " fill="#2141EC" transform="translate(223,136)"/>
<path d="M0 0 C-4.34475358 3.12279164 -7.77256462 3.65721735 -13 4 C-13.66 3.67 -14.32 3.34 -15 3 C-13.72942818 2.52014033 -12.45853152 2.0411407 -11.1875 1.5625 C-10.47980469 1.29566406 -9.77210937 1.02882812 -9.04296875 0.75390625 C-5.47999374 -0.56092009 -3.64317272 -1.13063981 0 0 Z " fill="#3E66FA" transform="translate(133,60)"/>
<path d="M0 0 C0.66 0 1.32 0 2 0 C1.46968862 4.5076467 -0.25221116 7.41954788 -3 11 C-3.66 11 -4.32 11 -5 11 C-4.32902328 6.80639551 -2.1441606 3.59665648 0 0 Z " fill="#1327BF" transform="translate(117,143)"/>
<path d="M0 0 C5.99291003 0.41330414 9.25036599 1.31903365 14 5 C12 6 12 6 10.1953125 5.546875 C6.39303783 4.08335796 3.10928889 2.72062778 0 0 Z " fill="#1A3EED" transform="translate(193,118)"/>
<path d="M0 0 C0.66 0 1.32 0 2 0 C0.5611898 3.387199 -1.22119499 5.3594104 -4 7.75 C-5.051875 8.67039062 -5.051875 8.67039062 -6.125 9.609375 C-8 11 -8 11 -10 11 C-8.83920845 7.51762536 -7.93131619 6.98418684 -5 4.9375 C-1.98371816 2.92046147 -1.98371816 2.92046147 0 0 Z " fill="#234BF5" transform="translate(260,275)"/>
<path d="M0 0 C9.59453303 1.74259681 9.59453303 1.74259681 13 5 C11.58249437 4.88490339 10.16598831 4.75746342 8.75 4.625 C7.96109375 4.55539063 7.1721875 4.48578125 6.359375 4.4140625 C3.914123 3.98492887 2.15163097 3.21399362 0 2 C0 1.34 0 0.68 0 0 Z " fill="#1939E4" transform="translate(145,244)"/>
<path d="M0 0 C0.99 0.33 1.98 0.66 3 1 C3 1.66 3 2.32 3 3 C4.175625 3.185625 4.175625 3.185625 5.375 3.375 C8 4 8 4 10 6 C6.25 7.125 6.25 7.125 4 6 C4 5.34 4 4.68 4 4 C3.38125 3.87625 2.7625 3.7525 2.125 3.625 C0 3 0 3 -2 1 C-1.34 0.67 -0.68 0.34 0 0 Z " fill="#354ED2" transform="translate(137,238)"/>
<path d="M0 0 C4.75 1.875 4.75 1.875 7 3 C7 3.66 7 4.32 7 5 C7.99 5.33 8.98 5.66 10 6 C10 6.66 10 7.32 10 8 C5.74508335 7.52723148 3.77457155 5.07452523 1 2 C0.67 1.34 0.34 0.68 0 0 Z " fill="#1B3FEF" transform="translate(212,127)"/>
<path d="M0 0 C0.66 0.33 1.32 0.66 2 1 C-2.625 6.875 -2.625 6.875 -6 8 C-5.8125 5.6875 -5.8125 5.6875 -5 3 C-2.5625 1.125 -2.5625 1.125 0 0 Z " fill="#2746ED" transform="translate(83,88)"/>
<path d="M0 0 C-1.55603771 3.81936528 -3.95604931 6.26044438 -7 9 C-7.66 9 -8.32 9 -9 9 C-9 9.66 -9 10.32 -9 11 C-9.66 10.67 -10.32 10.34 -11 10 C-10.34 9.01 -9.68 8.02 -9 7 C-8.34 7 -7.68 7 -7 7 C-6.731875 6.401875 -6.46375 5.80375 -6.1875 5.1875 C-3.37142857 0 -3.37142857 0 0 0 Z " fill="#C7CEF2" transform="translate(132,132)"/>
<path d="M0 0 C0.66 0 1.32 0 2 0 C1.8125 2.8125 1.8125 2.8125 1 6 C-1.5625 7.875 -1.5625 7.875 -4 9 C-4 4.9666466 -2.39120082 3.16482462 0 0 Z " fill="#3750E1" transform="translate(70,100)"/>
<path d="M0 0 C1.32 0 2.64 0 4 0 C3.88557539 1.60495567 3.75805306 3.20898119 3.625 4.8125 C3.55539062 5.70582031 3.48578125 6.59914062 3.4140625 7.51953125 C3 10 3 10 1 13 C1.020625 11.96875 1.04125 10.9375 1.0625 9.875 C1.00723339 6.44847031 0.65449285 3.35427586 0 0 Z " fill="#344DBD" transform="translate(296,206)"/>
<path d="M0 0 C1.98 1.65 3.96 3.3 6 5 C5.01 6.485 5.01 6.485 4 8 C2.02 6.35 0.04 4.7 -2 3 C-1 1 -1 1 0 0 Z " fill="#4069FB" transform="translate(82,273)"/>
<path d="M0 0 C0.66 0 1.32 0 2 0 C2.33 3.3 2.66 6.6 3 10 C2.01 10 1.02 10 0 10 C0 6.7 0 3.4 0 0 Z " fill="#1B4BF6" transform="translate(45,198)"/>
<path d="M0 0 C-2.33623775 1.82518575 -4.08898065 3.01010373 -7.11328125 2.9765625 C-9.08537617 2.71735287 -11.04463697 2.36455921 -13 2 C-9.19220591 -0.28467645 -4.15048462 -2.07524231 0 0 Z " fill="#325DFA" transform="translate(151,55)"/>
<path d="M0 0 C0.99 0.33 1.98 0.66 3 1 C1.80100302 4.0831351 0.52299523 7.06279492 -1 10 C-2.46726798 6.18510326 -1.43336419 3.70988378 0 0 Z " fill="#2443C8" transform="translate(292,225)"/>
<path d="M0 0 C2.39763185 2.39763185 2.34280586 3.33273498 2.625 6.625 C2.69976562 7.44226563 2.77453125 8.25953125 2.8515625 9.1015625 C2.90054688 9.72804687 2.94953125 10.35453125 3 11 C2.67 10.34 2.34 9.68 2 9 C1.34 9 0.68 9 0 9 C-1.125 3.375 -1.125 3.375 0 0 Z " fill="#2956FA" transform="translate(52,224)"/>
<path d="M0 0 C2 1.75 2 1.75 4 4 C4 5.32 4 6.64 4 8 C2.68 7.67 1.36 7.34 0 7 C-0.93423645 3.98968256 -1.04449911 3.13349732 0 0 Z " fill="#091043" transform="translate(113,213)"/>
<path d="M0 0 C-3.09902323 3.09902323 -5.39147385 2.9898579 -9.75 3.0625 C-10.8225 3.041875 -11.895 3.02125 -13 3 C-8.48332093 -0.01111938 -5.3360009 -0.10067926 0 0 Z " fill="#234DF7" transform="translate(328,201)"/>
<path d="M0 0 C-1 2 -1 2 -4.3125 3.1875 C-7.57562063 3.90649268 -8.99282882 4.20286847 -12 3 C-11.01 3 -10.02 3 -9 3 C-9 2.34 -9 1.68 -9 1 C-5.92677456 0.08941469 -3.19902639 -0.08886184 0 0 Z " fill="#1749FB" transform="translate(142,57)"/>
<path d="M0 0 C-1 3 -1 3 -3.375 4.1875 C-6 5 -6 5 -9 5 C-9 4.34 -9 3.68 -9 3 C-2.25 0 -2.25 0 0 0 Z " fill="#2854F9" transform="translate(235,295)"/>
<path d="M0 0 C0 3.19633438 -0.33810135 4.34096216 -2 7 C-4.125 8.75 -4.125 8.75 -6 10 C-6.66 9.67 -7.32 9.34 -8 9 C-5.36 6.03 -2.72 3.06 0 0 Z " fill="#3451DF" transform="translate(222,228)"/>
<path d="M0 0 C0.33 0 0.66 0 1 0 C1.66 3.3 2.32 6.6 3 10 C1.68 9.67 0.36 9.34 -1 9 C-2.60031344 5.79937313 -1.03173691 3.27728194 0 0 Z " fill="#252F74" transform="translate(108,196)"/>
<path d="M0 0 C3.3 0.33 6.6 0.66 10 1 C10.33 1.99 10.66 2.98 11 4 C7.37 3.01 3.74 2.02 0 1 C0 0.67 0 0.34 0 0 Z " fill="#184CFB" transform="translate(201,57)"/>
<path d="M0 0 C3.35595828 0.59927826 5.37801226 1.84622436 8 4 C7.67 4.99 7.34 5.98 7 7 C5.83040013 6.02433888 4.66438823 5.044375 3.5 4.0625 C2.8503125 3.51722656 2.200625 2.97195312 1.53125 2.41015625 C1.0259375 1.94480469 0.520625 1.47945312 0 1 C0 0.67 0 0.34 0 0 Z " fill="#06114E" transform="translate(99,204)"/>
<path d="M0 0 C0.33 0 0.66 0 1 0 C1.33 2.97 1.66 5.94 2 9 C1.01 9.33 0.02 9.66 -1 10 C-1.02689216 8.52093108 -1.04634621 7.04172517 -1.0625 5.5625 C-1.07410156 4.73878906 -1.08570313 3.91507813 -1.09765625 3.06640625 C-1 1 -1 1 0 0 Z " fill="#6083F4" transform="translate(44,160)"/>
<path d="M0 0 C1 3 1 3 -0.3125 5.6875 C-0.869375 6.450625 -1.42625 7.21375 -2 8 C-2.66 8 -3.32 8 -4 8 C-3.6875 5.125 -3.6875 5.125 -3 2 C-2.01 1.34 -1.02 0.68 0 0 Z " fill="#1731D2" transform="translate(67,107)"/>
<path d="M0 0 C4.95 0.99 4.95 0.99 10 2 C9.67 2.66 9.34 3.32 9 4 C4.53159589 3.50351065 3.31012244 3.31012244 0 0 Z " fill="#1D4AF8" transform="translate(120,300)"/>
<path d="M0 0 C2.52588702 2.36292656 3.88820837 3.66462511 5 7 C4.34 7.66 3.68 8.32 3 9 C3 8.01 3 7.02 3 6 C2.01 5.67 1.02 5.34 0 5 C0 3.35 0 1.7 0 0 Z " fill="#3156F6" transform="translate(318,162)"/>
<path d="M0 0 C0.66 0.33 1.32 0.66 2 1 C1.4375 2.875 1.4375 2.875 0 5 C-3.625 6.25 -3.625 6.25 -7 7 C-4.66666667 4.66666667 -2.33333333 2.33333333 0 0 Z " fill="#395AF2" transform="translate(93,78)"/>
<path d="M0 0 C3.00617269 3.00617269 2.59585316 5.82381598 3 10 C0.18167487 8.59083743 -0.02593461 6.92219617 -1 4 C-1 1 -1 1 0 0 Z " fill="#496FF9" transform="translate(59,241)"/>
<path d="M0 0 C2.2477975 2.05233685 3.0022242 3.00667261 4 6 C3.34 6.66 2.68 7.32 2 8 C0.4375 5.6875 0.4375 5.6875 -1 3 C-0.67 2.01 -0.34 1.02 0 0 Z " fill="#345BF5" transform="translate(332,182)"/>
<path d="M0 0 C0.66 0 1.32 0 2 0 C2.79953138 3.28696233 3.09658936 4.71023192 2 8 C1.34 8 0.68 8 0 8 C0 5.36 0 2.72 0 0 Z " fill="#1A4CF1" transform="translate(45,157)"/>
<path d="M0 0 C0 0.99 0 1.98 0 3 C-1.98 3.99 -1.98 3.99 -4 5 C-4.99 4.34 -5.98 3.68 -7 3 C-2.25 0 -2.25 0 0 0 Z " fill="#4066F8" transform="translate(110,68)"/>
<path d="M0 0 C3.79588866 0.54226981 5.47211993 2.20127563 8 5 C4.5625 4.1875 4.5625 4.1875 1 3 C0.67 2.01 0.34 1.02 0 0 Z " fill="#204EFC" transform="translate(97,287)"/>
<path d="M0 0 C0.99 0.33 1.98 0.66 3 1 C3.33 2.98 3.66 4.96 4 7 C3.01 6.67 2.02 6.34 1 6 C0.67 4.02 0.34 2.04 0 0 Z " fill="#2A53F9" transform="translate(55,236)"/>
<path d="M0 0 C1.65 1.65 3.3 3.3 5 5 C4.67 5.66 4.34 6.32 4 7 C2.35 6.01 0.7 5.02 -1 4 C-0.67 2.68 -0.34 1.36 0 0 Z " fill="#395FF8" transform="translate(280,107)"/>
</svg>
